<svg width="7" height="6" viewBox="0 0 7 6" fill="none" xmlns="http://www.w3.org/2000/svg">
<path d="M6.05005 3V5.04167C6.05005 5.19638 5.98859 5.34475 5.87919 5.45415C5.7698 5.56354 5.62143 5.625 5.46672 5.625H1.38338C1.22867 5.625 1.0803 5.56354 0.970903 5.45415C0.861507 5.34475 0.800049 5.19638 0.800049 5.04167V3H6.05005ZM4.59172 0.375C4.66907 0.375 4.74326 0.405729 4.79796 0.460427C4.85265 0.515125 4.88338 0.589312 4.88338 0.666667V0.958333H5.46672C5.62143 0.958333 5.7698 1.01979 5.87919 1.12919C5.98859 1.23858 6.05005 1.38696 6.05005 1.54167V2.41667H0.800049V1.54167C0.800049 1.38696 0.861507 1.23858 0.970903 1.12919C1.0803 1.01979 1.22867 0.958333 1.38338 0.958333H1.96672V0.666667C1.96672 0.589312 1.99744 0.515125 2.05214 0.460427C2.10684 0.405729 2.18103 0.375 2.25838 0.375C2.33574 0.375 2.40992 0.405729 2.46462 0.460427C2.51932 0.515125 2.55005 0.589312 2.55005 0.666667V0.958333H4.30005V0.666667C4.30005 0.589312 4.33078 0.515125 4.38548 0.460427C4.44017 0.405729 4.51436 0.375 4.59172 0.375Z"/>
</svg>
