<svg width="8" height="8" viewBox="0 0 8 8" fill="none" xmlns="http://www.w3.org/2000/svg">
<path d="M1.54379 0.671806L3.99997 3.12799L6.44343 0.684532C6.49741 0.627084 6.56243 0.581127 6.63459 0.549418C6.70676 0.517709 6.78458 0.5009 6.8634 0.5C7.03217 0.5 7.19402 0.56704 7.31335 0.686373C7.43268 0.805706 7.49972 0.967556 7.49972 1.13632C7.50121 1.21433 7.48673 1.29183 7.45719 1.36404C7.42764 1.43626 7.38365 1.50168 7.32792 1.55629L4.85264 3.99975L7.32792 6.47503C7.43279 6.57763 7.49429 6.71656 7.49972 6.86318C7.49972 7.03194 7.43268 7.19379 7.31335 7.31312C7.19402 7.43246 7.03217 7.4995 6.8634 7.4995C6.78231 7.50286 6.7014 7.48933 6.62581 7.45975C6.55023 7.43017 6.48162 7.3852 6.42435 7.32769L3.99997 4.8715L1.55015 7.32133C1.49638 7.37686 1.43215 7.4212 1.36116 7.45178C1.29018 7.48236 1.21383 7.49858 1.13654 7.4995C0.967781 7.4995 0.805932 7.43246 0.686599 7.31312C0.567266 7.19379 0.500226 7.03194 0.500226 6.86318C0.498742 6.78517 0.513216 6.70767 0.54276 6.63545C0.572304 6.56323 0.616295 6.49781 0.672031 6.44321L3.14731 3.99975L0.672031 1.52447C0.567157 1.42187 0.50566 1.28293 0.500226 1.13632C0.500226 0.967556 0.567266 0.805706 0.686599 0.686373C0.805932 0.56704 0.967781 0.5 1.13654 0.5C1.28926 0.501909 1.43561 0.563632 1.54379 0.671806Z" />
</svg>
