<svg width="21" height="16" viewBox="0 0 21 16" fill="none" xmlns="http://www.w3.org/2000/svg">
<path fill-rule="evenodd" clip-rule="evenodd" d="M2.375 15.5H18.625C19.6625 15.5 20.5 14.6625 20.5 13.625V2.375C20.5 1.3375 19.6625 0.5 18.625 0.5H2.375C1.3375 0.5 0.5 1.3375 0.5 2.375V13.625C0.5 14.6625 1.3375 15.5 2.375 15.5ZM2.69261 1.75L9.13753 8.60003C9.85003 9.36253 11.15 9.36253 11.8625 8.60003L18.319 1.75H2.69261ZM19.25 2.59305V13.625C19.25 13.975 18.975 14.25 18.625 14.25H2.375C2.025 14.25 1.75 13.975 1.75 13.625V2.5805L8.22503 9.46253C8.82503 10.1 9.62503 10.45 10.5 10.45V10.4625C11.375 10.4625 12.175 10.1125 12.775 9.47503L19.25 2.59305Z"/>
</svg>
