<svg width="20" height="14" viewBox="0 0 20 14" fill="none" xmlns="http://www.w3.org/2000/svg">
  <path fill-rule="evenodd" clip-rule="evenodd"
    d="M10 4C9.20435 4 8.44129 4.31607 7.87868 4.87868C7.31607 5.44129 7 6.20435 7 7C7 7.79565 7.31607 8.55871 7.87868 9.12132C8.44129 9.68393 9.20435 10 10 10C10.7957 10 11.5587 9.68393 12.1213 9.12132C12.6839 8.55871 13 7.79565 13 7C13 6.20435 12.6839 5.44129 12.1213 4.87868C11.5587 4.31607 10.7957 4 10 4ZM9.29289 6.29289C9.48043 6.10536 9.73478 6 10 6C10.2652 6 10.5196 6.10536 10.7071 6.29289C10.8946 6.48043 11 6.73478 11 7C11 7.26522 10.8946 7.51957 10.7071 7.70711C10.5196 7.89464 10.2652 8 10 8C9.73478 8 9.48043 7.89464 9.29289 7.70711C9.10536 7.51957 9 7.26522 9 7C9 6.73478 9.10536 6.48043 9.29289 6.29289Z" />
  <path fill-rule="evenodd" clip-rule="evenodd"
    d="M10 0C5.94444 0 2.66219 2.28603 0.142507 6.4855C-0.0475024 6.80219 -0.0475024 7.19781 0.142507 7.5145C2.66219 11.714 5.94444 14 10 14C14.0556 14 17.3378 11.714 19.8575 7.5145C20.0475 7.19781 20.0475 6.80219 19.8575 6.4855C17.3378 2.28603 14.0556 0 10 0ZM10 12C7.00114 12 4.39038 10.4411 2.17703 7C4.39038 3.55893 7.00114 2 10 2C12.9989 2 15.6096 3.55893 17.823 7C15.6096 10.4411 12.9989 12 10 12Z" />
</svg>