<svg width="23" height="20" viewBox="0 0 23 20" fill="none" xmlns="http://www.w3.org/2000/svg">
<path d="M20.5901 2.60999C20.0793 2.099 19.4729 1.69364 18.8054 1.41708C18.138 1.14052 17.4225 0.998169 16.7001 0.998169C15.9776 0.998169 15.2622 1.14052 14.5947 1.41708C13.9272 1.69364 13.3208 2.099 12.8101 2.60999L11.7501 3.66999L10.6901 2.60999C9.65837 1.5783 8.25909 0.998704 6.80006 0.998704C5.34103 0.998704 3.94175 1.5783 2.91006 2.60999C1.87837 3.64169 1.29877 5.04096 1.29877 6.49999C1.29877 7.95903 1.87837 9.3583 2.91006 10.39L3.97006 11.45L11.7501 19.23L19.5301 11.45L20.5901 10.39C21.1011 9.87924 21.5064 9.27281 21.783 8.60535C22.0595 7.93789 22.2019 7.22248 22.2019 6.49999C22.2019 5.77751 22.0595 5.0621 21.783 4.39464C21.5064 3.72718 21.1011 3.12075 20.5901 2.60999V2.60999Z" stroke-width="1.5" stroke-linecap="round" stroke-linejoin="round"/>
</svg>
