<svg width="4" height="14" viewBox="0 0 4 14" fill="none" xmlns="http://www.w3.org/2000/svg">
<path d="M0.750031 12C0.750031 11.6685 0.881727 11.3505 1.11615 11.1161C1.35057 10.8817 1.66851 10.75 2.00003 10.75C2.33155 10.75 2.64949 10.8817 2.88391 11.1161C3.11833 11.3505 3.25003 11.6685 3.25003 12C3.25003 12.3315 3.11833 12.6495 2.88391 12.8839C2.64949 13.1183 2.33155 13.25 2.00003 13.25C1.66851 13.25 1.35057 13.1183 1.11615 12.8839C0.881727 12.6495 0.750031 12.3315 0.750031 12ZM0.750031 7C0.750031 6.66848 0.881727 6.35054 1.11615 6.11612C1.35057 5.8817 1.66851 5.75 2.00003 5.75C2.33155 5.75 2.64949 5.8817 2.88391 6.11612C3.11833 6.35054 3.25003 6.66848 3.25003 7C3.25003 7.33152 3.11833 7.64946 2.88391 7.88388C2.64949 8.1183 2.33155 8.25 2.00003 8.25C1.66851 8.25 1.35057 8.1183 1.11615 7.88388C0.881727 7.64946 0.750031 7.33152 0.750031 7ZM0.750031 2C0.750031 1.66848 0.881727 1.35054 1.11615 1.11612C1.35057 0.881696 1.66851 0.75 2.00003 0.75C2.33155 0.75 2.64949 0.881696 2.88391 1.11612C3.11833 1.35054 3.25003 1.66848 3.25003 2C3.25003 2.33152 3.11833 2.64946 2.88391 2.88388C2.64949 3.1183 2.33155 3.25 2.00003 3.25C1.66851 3.25 1.35057 3.1183 1.11615 2.88388C0.881727 2.64946 0.750031 2.33152 0.750031 2Z" />
</svg>
