<svg width="8" height="6" viewBox="0 0 8 6" fill="none" xmlns="http://www.w3.org/2000/svg">
<path d="M2.23755 2.85413C2.40991 2.85413 2.58058 2.82018 2.73982 2.75422C2.89906 2.68826 3.04375 2.59158 3.16563 2.4697C3.2875 2.34783 3.38418 2.20314 3.45014 2.0439C3.5161 1.88466 3.55005 1.71399 3.55005 1.54163C3.55005 1.36927 3.5161 1.19859 3.45014 1.03935C3.38418 0.880114 3.2875 0.735425 3.16563 0.613548C3.04375 0.491671 2.89906 0.394993 2.73982 0.329034C2.58058 0.263075 2.40991 0.229126 2.23755 0.229126C1.88945 0.229126 1.55561 0.367407 1.30947 0.613548C1.06333 0.85969 0.925049 1.19353 0.925049 1.54163C0.925049 1.88972 1.06333 2.22356 1.30947 2.4697C1.55561 2.71584 1.88945 2.85413 2.23755 2.85413ZM4.45422 5.07633C4.67676 5.14488 4.95413 5.18746 5.30005 5.18746C7.05005 5.18746 7.05005 4.09371 7.05005 4.09371C7.05005 3.91966 6.98091 3.75274 6.85784 3.62967C6.73477 3.5066 6.56785 3.43746 6.3938 3.43746H4.45247C4.62198 3.61384 4.7165 3.84908 4.71613 4.09371V4.25558L4.71526 4.27979C4.7091 4.37721 4.69407 4.47386 4.67034 4.56854C4.62521 4.7479 4.55239 4.91912 4.45451 5.07604M6.32088 1.83329C6.32088 1.96735 6.29448 2.1001 6.24318 2.22395C6.19187 2.3478 6.11668 2.46034 6.02189 2.55513C5.92709 2.64992 5.81456 2.72512 5.6907 2.77642C5.56685 2.82772 5.43411 2.85413 5.30005 2.85413C5.16599 2.85413 5.03325 2.82772 4.90939 2.77642C4.78554 2.72512 4.673 2.64992 4.57821 2.55513C4.48342 2.46034 4.40822 2.3478 4.35692 2.22395C4.30562 2.1001 4.27922 1.96735 4.27922 1.83329C4.27922 1.56255 4.38677 1.3029 4.57821 1.11145C4.76965 0.920011 5.02931 0.812459 5.30005 0.812459C5.57079 0.812459 5.83044 0.920011 6.02189 1.11145C6.21333 1.3029 6.32088 1.56255 6.32088 1.83329ZM0.0500488 4.09371C0.0500488 3.91966 0.119189 3.75274 0.24226 3.62967C0.365331 3.5066 0.532251 3.43746 0.706299 3.43746H3.7688C3.94285 3.43746 4.10977 3.5066 4.23284 3.62967C4.35591 3.75274 4.42505 3.91966 4.42505 4.09371V4.23954C4.42505 4.23954 4.42505 5.77079 2.23755 5.77079C0.0500488 5.77079 0.0500488 4.23954 0.0500488 4.23954V4.09371Z" />
</svg>
