<svg width="46" height="46" viewBox="0 0 46 46" fill="none" xmlns="http://www.w3.org/2000/svg">
<path d="M18.9571 36.77C22.7161 36.765 26.3793 35.5846 29.4341 33.394L40.5431 44.504C40.7926 44.752 41.0889 44.948 41.4146 45.0806C41.7404 45.2133 42.0893 45.2801 42.4411 45.277C43.9651 45.277 45.0661 44.105 45.0661 42.605C45.0661 41.902 44.8321 41.246 44.3161 40.731L33.2771 29.668C35.5971 26.621 36.9801 22.848 36.9801 18.746C36.9801 8.83202 28.8711 0.723022 18.9571 0.723022C9.02008 0.723022 0.934082 8.83202 0.934082 18.746C0.934082 28.66 9.02008 36.77 18.9571 36.77ZM18.9571 32.879C11.1991 32.879 4.82408 26.481 4.82408 18.746C4.82408 11.011 11.2001 4.61302 18.9571 4.61302C26.6911 4.61302 33.0901 11.012 33.0901 18.746C33.0901 26.481 26.6911 32.879 18.9571 32.879Z"/>
</svg>
